Motion_pl10
version=1
nRows=12
nColumns=43
inDegrees=yes
endheader
time	pelvis_tilt	pelvis_list	pelvis_rotation	pelvis_tx	pelvis_ty	pelvis_tz	hip_flexion_r	hip_adduction_r	hip_rotation_r	knee_angle_r	ankle_angle_r	subtalar_angle_r	mtp_angle_r	hip_flexion_l	hip_adduction_l	hip_rotation_l	knee_angle_l	ankle_angle_l	subtalar_angle_l	mtp_angle_l	lumbar_extension	lumbar_bending	lumbar_rotation	neck_flexion	neck_lateral_bending	neck_rotation	arm_flex_r	arm_add_r	arm_rot_r	elbow_flex_r	pro_sup_r	wrist_flex_r	wrist_dev_r	hand_finger_flex_r	arm_flex_l	arm_add_l	arm_rot_l	elbow_flex_l	pro_sup_l	wrist_flex_l	wrist_dev_l	hand_finger_flex_l
      1.94000000	     -0.50882151	    -40.91747587	     92.14672455	      0.01153341	      0.62454264	      0.48940960	    100.76385449	     -9.61034335	     -1.49265420	    -88.14925122	     15.41032664	     17.93377645	     21.65633222	     98.52216354	     -7.04260518	      1.96166709	    -90.64773196	     14.36460528	     21.49883636	     30.60541746	    -47.85704996	     -3.96537846	     -4.33152783	     31.79203323	     13.30010449	     -8.40309641	    115.57316602	    -20.71855427	     25.11040303	     44.77110016	    133.25827198	      1.18921020	    -12.55260807	    -41.41239616	    130.76010906	    -12.84190423	     51.74133465	     41.27560963	    136.79109072	    -22.31002042	     -9.55753411	    -27.77536172
      1.94250000	     -0.49818645	    -40.86651265	     92.13800987	      0.01126981	      0.62435727	      0.48943480	    100.74243084	     -9.64588417	     -1.46968050	    -88.17672588	     15.41129859	     17.93793755	     21.65854147	     98.49689031	     -7.06843434	      1.95785123	    -90.66914160	     14.36426926	     21.50138490	     30.61104867	    -47.77285172	     -3.96232962	     -4.31523843	     31.80319486	     13.29857889	     -8.40065693	    115.57938064	    -20.69700140	     25.11295061	     44.77764472	    133.25980534	      1.18939780	    -12.55555532	    -41.41404434	    130.80016883	    -12.82166151	     51.73378960	     41.29325759	    136.78604751	    -22.31389280	     -9.55858718	    -27.77772584
      1.94500000	     -0.48581954	    -40.39741051	     92.03219774	      0.01114936	      0.62409252	      0.48903616	    100.41236521	     -9.60922682	     -1.38262139	    -88.44811094	     15.53640528	     18.77670562	     21.84658189	     98.17243851	     -7.28672561	      1.90229849	    -90.96075283	     14.46884376	     21.88342791	     31.06841801	    -48.06865018	     -3.97163801	     -4.18314851	     31.95424067	     13.06358010	     -8.41425479	    115.76998715	    -20.56878291	     25.15125670	     44.49799413	    133.49119595	      1.32651561	    -12.62279077	    -41.49111052	    130.91723796	    -12.78824400	     51.89666937	     41.16900239	    136.47871742	    -22.19294370	     -9.54028753	    -27.82784001
      1.94750000	     -0.47580908	    -40.34975582	     92.02350622	      0.01095083	      0.62395680	      0.48905481	    100.39027309	     -9.64190724	     -1.36168018	    -88.47104018	     15.53824953	     18.77537467	     21.84796097	     98.15001443	     -7.30640001	      1.90403333	    -90.97892369	     14.46654686	     21.88304102	     31.07258219	    -47.98137177	     -3.97230230	     -4.17283074	     31.96156869	     13.06388214	     -8.41479640	    115.77776915	    -20.55027178	     25.15502628	     44.50316455	    133.49342802	      1.32792137	    -12.62539907	    -41.49170692	    130.95598538	    -12.77080756	     51.88990040	     41.18445492	    136.47604914	    -22.19610651	     -9.54266821	    -27.82944625
      1.95000000	     -0.45314245	    -40.17581178	     92.02106339	      0.01070079	      0.62325853	      0.48896432	    100.39137234	     -9.68438614	     -1.32028904	    -88.76429807	     15.59434761	     18.81682032	     21.87064653	     98.14933956	     -7.38836500	      1.84668607	    -91.25419984	     14.45742760	     21.90097322	     31.12243875	    -47.92396913	     -3.94700048	     -4.11750998	     32.04888474	     13.05262287	     -8.42698203	    115.77029805	    -20.49820708	     25.18592700	     44.40909661	    133.53298822	      1.36643843	    -12.61665658	    -41.48851651	    130.93754503	    -12.73635286	     51.94301347	     41.12547458	    136.46151039	    -22.15452550	     -9.54808787	    -27.82291537
      1.95250000	     -0.44736260	    -40.11606780	     92.00452848	      0.01045968	      0.62314047	      0.48900736	    100.37249289	     -9.71455326	     -1.30086003	    -88.79221912	     15.60621754	     18.82280481	     21.87421652	     98.12530153	     -7.39988344	      1.86012500	    -91.28648905	     14.45268354	     21.90410363	     31.13015931	    -47.84831413	     -3.95369133	     -4.10420902	     32.05534205	     13.04723661	     -8.42992362	    115.77327816	    -20.46446775	     25.19867285	     44.40427130	    133.54082624	      1.37408840	    -12.61864353	    -41.48713617	    130.98471291	    -12.70079900	     51.93823873	     41.13726525	    136.45769309	    -22.15324435	     -9.55002627	    -27.82328274
      1.95500000	     -0.46716252	    -39.69332186	     91.90500884	      0.01031539	      0.62287014	      0.48876357	    100.07507026	     -9.66866815	     -1.23379079	    -89.03340629	     16.06355614	     19.05793944	     21.99518572	     97.86813466	     -7.48860273	      1.88630017	    -91.58429607	     14.35579446	     22.02063256	     31.39637295	    -48.06638586	     -3.97855584	     -4.00774089	     31.95651004	     12.86460550	     -8.52562259	    116.00861585	    -20.32864415	     25.31795524	     44.00032492	    133.83371848	      1.57411462	    -12.61975607	    -41.45369224	    131.11509733	    -12.52137232	     52.04508892	     40.74114227	    136.36171443	    -21.96456389	     -9.55368830	    -27.80307002
      1.95750000	     -0.50562781	    -39.56784612	     91.83856770	      0.01003067	      0.62256874	      0.48868299	    100.04804996	     -9.76496069	     -1.31125898	    -89.15566513	     16.09874127	     19.04590669	     22.00879642	     97.83255379	     -7.47689616	      1.91358597	    -91.75157183	     14.36090869	     22.01927857	     31.43961024	    -48.02347179	     -4.01282055	     -4.00044258	     32.00697976	     12.84038857	     -8.51717043	    116.00676267	    -20.29456450	     25.32754430	     43.98633935	    133.87242986	      1.58559718	    -12.63951248	    -41.45705701	    131.12149570	    -12.49481688	     52.04971369	     40.73670353	    136.34974432	    -21.96606765	     -9.57375583	    -27.81349083
      1.96000000	     -0.50057423	    -39.51402795	     91.82656175	      0.00986507	      0.62250891	      0.48867159	    100.03038778	     -9.78984100	     -1.30038781	    -89.17578186	     16.10843973	     19.03922277	     22.01064410	     97.80291806	     -7.48344774	      1.91750686	    -91.77405552	     14.35766903	     22.01856868	     31.44419762	    -47.94290623	     -4.01405594	     -3.99013307	     32.01357375	     12.83799806	     -8.51680896	    116.01474832	    -20.26955158	     25.33261680	     43.99087448	    133.87765035	      1.58781979	    -12.64312371	    -41.45674666	    131.15927026	    -12.46986934	     52.04128475	     40.74864508	    136.34750593	    -21.96844962	     -9.57595583	    -27.81504284
      1.96250000	     -0.55385902	    -38.99357249	     91.76340420	      0.00952314	      0.62244970	      0.48824619	     99.59385862	     -9.86446173	     -1.36368321	    -89.38006546	     16.74084578	     18.69450500	     22.13840063	     97.41491593	     -7.47156568	      1.93816729	    -92.06087159	     14.31101443	     21.98224811	     31.76229666	    -48.28717156	     -4.01154620	     -3.94189892	     31.94295555	     12.63480479	     -8.53243163	    116.22504295	    -20.11480286	     25.34393229	     43.61395567	    134.29040325	      1.74216029	    -12.73978718	    -41.43153264	    131.24221198	    -12.27010035	     51.99761295	     40.37656539	    136.26460901	    -21.84998900	     -9.64933881	    -27.84848756
      1.96500000	     -0.55092557	    -38.94279968	     91.74963221	      0.00935255	      0.62236820	      0.48822304	     99.57899785	     -9.89614025	     -1.35718846	    -89.39994826	     16.74147852	     18.69072425	     22.13996110	     97.38294379	     -7.48078457	      1.94348692	    -92.08514119	     14.30878472	     21.98186934	     31.76666872	    -48.20194229	     -4.01163630	     -3.92890747	     31.95228221	     12.63537446	     -8.53224679	    116.23366666	    -20.09253980	     25.34619974	     43.62132450	    134.29493309	      1.74272044	    -12.74446420	    -41.43180717	    131.27803324	    -12.25401005	     51.98972599	     40.38922382	    136.26352063	    -21.85257741	     -9.65278040	    -27.85014644
      1.96750000	     -0.56904506	    -38.72054623	     91.70445737	      0.00910005	      0.62177096	      0.48805684	     99.52352010	     -9.99020266	     -1.42781693	    -89.65669753	     16.83897171	     18.64782445	     22.17565971	     97.32470608	     -7.50655622	      1.95890321	    -92.37098136	     14.31433926	     21.98430293	     31.84059337	    -48.20374212	     -4.02984243	     -3.89790246	     32.03849901	     12.60157720	     -8.53191625	    116.23925973	    -20.02392170	     25.34553974	     43.49632714	    134.39085219	      1.78385930	    -12.76303555	    -41.42431968	    131.26966091	    -12.19859574	     52.00389454	     40.31805150	    136.25403305	    -21.80477496	     -9.67348002	    -27.84966652
